<?xml version="1.0" encoding="UTF-8" standalone="no"?>
<!-- Created with Inkscape (http://www.inkscape.org/) -->
<svg xmlns:inkscape="http://www.inkscape.org/namespaces/inkscape" xmlns:sodipodi="http://sodipodi.sourceforge.net/DTD/sodipodi-0.dtd" xmlns="http://www.w3.org/2000/svg" xmlns:svg="http://www.w3.org/2000/svg" width="1280" height="800" viewBox="0 0 1280 800" version="1.1" id="SVGRoot" sodipodi:docname="SoapUI.svg" inkscape:version="1.2.2 (732a01da63, 2022-12-09)" xml:space="preserve">
  <defs id="defs251">
    <style id="style5031">.cls-1{fill:#173647;}.cls-2{fill:#fcdc00;}</style>
  </defs>
  <g inkscape:label="Layer 1" inkscape:groupmode="layer" id="layer1">
    <rect style="font-variation-settings:normal;opacity:1;vector-effect:none;fill:#b2ccdf;fill-opacity:1;fill-rule:evenodd;stroke-width:1.0101;stroke-linecap:butt;stroke-linejoin:miter;stroke-miterlimit:4;stroke-dasharray:none;stroke-dashoffset:0;stroke-opacity:1;-inkscape-stroke:none;stop-color:#000000;stop-opacity:1" id="rect787" width="1321.212" height="800" x="0" y="0"></rect>
    <g id="g5077" transform="matrix(2.3091688,0,0,2.3091688,237.102,283.14913)">
      <path class="cls-1" d="m 151.118,61.913 a 11.909,11.909 0 0 1 -4.648,9.994 q -4.648,3.585 -12.618,3.586 -8.631,0 -13.281,-2.225 v -5.445 a 34.962,34.962 0 0 0 6.508,1.992 34.248,34.248 0 0 0 6.973,0.731 q 5.643,0 8.5,-2.142 a 7.029,7.029 0 0 0 2.855,-5.96 7.654,7.654 0 0 0 -1.013,-4.134 9.4,9.4 0 0 0 -3.386,-2.972 47.5,47.5 0 0 0 -7.222,-3.087 q -6.774,-2.424 -9.679,-5.745 a 12.685,12.685 0 0 1 -2.907,-8.666 10.776,10.776 0 0 1 4.217,-8.931 q 4.216,-3.321 11.156,-3.321 a 32.881,32.881 0 0 1 13.315,2.657 l -1.76,4.914 a 30.1,30.1 0 0 0 -11.688,-2.524 11.312,11.312 0 0 0 -7.006,1.926 6.347,6.347 0 0 0 -2.523,5.346 8.193,8.193 0 0 0 0.93,4.134 8.77,8.77 0 0 0 3.139,2.959 39,39 0 0 0 6.757,2.971 q 7.637,2.724 10.509,5.844 a 11.493,11.493 0 0 1 2.872,8.098 z" id="path5037"></path>
      <path class="cls-1" d="m 190.694,56.6 q 0,8.9 -4.482,13.9 -4.482,5 -12.385,5 a 16.4,16.4 0 0 1 -8.666,-2.291 15.127,15.127 0 0 1 -5.844,-6.574 22.92,22.92 0 0 1 -2.058,-10.035 q 0,-8.9 4.449,-13.862 4.449,-4.962 12.351,-4.964 7.637,0 12.136,5.08 4.499,5.08 4.499,13.746 z m -27.724,0 q 0,6.974 2.789,10.625 2.789,3.651 8.2,3.653 5.412,0 8.218,-3.636 2.806,-3.636 2.806,-10.642 0,-6.939 -2.805,-10.542 -2.805,-3.603 -8.285,-3.6 -5.412,0 -8.168,3.552 -2.756,3.552 -2.755,10.59 z" id="path5039"></path>
      <path class="cls-1" d="m 221.491,74.829 -1.1,-5.18 h -0.265 a 15.322,15.322 0 0 1 -5.429,4.632 16.568,16.568 0 0 1 -6.757,1.212 q -5.412,0 -8.483,-2.789 -3.071,-2.789 -3.071,-7.936 0,-11.022 17.63,-11.555 l 6.176,-0.2 v -2.257 q 0,-4.282 -1.843,-6.325 -1.843,-2.043 -5.893,-2.042 a 24.016,24.016 0 0 0 -10.293,2.789 l -1.694,-4.216 a 25.867,25.867 0 0 1 5.894,-2.291 25.5,25.5 0 0 1 6.425,-0.831 q 6.507,0 9.645,2.889 3.138,2.889 3.138,9.264 V 74.829 Z M 209.04,70.944 q 5.147,0 8.085,-2.822 2.938,-2.822 2.938,-7.9 v -3.29 l -5.511,0.233 q -6.574,0.233 -9.48,2.042 a 6.156,6.156 0 0 0 -2.905,5.628 5.674,5.674 0 0 0 1.809,4.548 7.508,7.508 0 0 0 5.064,1.561 z" id="path5041"></path>
      <path class="cls-1" d="m 252.143,75.493 a 15.752,15.752 0 0 1 -6.491,-1.312 12.194,12.194 0 0 1 -4.93,-4.034 h -0.4 a 48.752,48.752 0 0 1 0.4,6.043 V 91.165 H 235.21 V 38.438 h 4.482 l 0.764,4.981 h 0.266 a 12.791,12.791 0 0 1 4.947,-4.317 15.041,15.041 0 0 1 6.474,-1.328 q 7.239,0 11.173,4.947 3.934,4.947 3.935,13.879 0,8.965 -4,13.929 -4,4.964 -11.108,4.964 z m -0.8,-33.037 q -5.579,0 -8.069,3.088 -2.49,3.088 -2.556,9.828 V 56.6 q 0,7.669 2.556,10.974 2.556,3.305 8.2,3.3 a 8.528,8.528 0 0 0 7.388,-3.819 q 2.671,-3.818 2.673,-10.525 0,-6.807 -2.673,-10.443 a 8.793,8.793 0 0 0 -7.515,-3.631 z" id="path5043"></path>
      <path class="cls-1" d="M 312.721,26.286 V 57.7 q 0,8.3 -5.014,13.049 -5.014,4.749 -13.779,4.748 -8.766,0 -13.564,-4.781 -4.798,-4.781 -4.8,-13.149 V 26.286 h 5.645 v 31.676 q 0,6.075 3.32,9.33 3.32,3.255 9.762,3.254 6.142,0 9.463,-3.271 3.321,-3.271 3.32,-9.38 V 26.286 Z" id="path5045"></path>
      <path class="cls-1" d="M 323.918,74.829 V 26.286 h 5.644 v 48.543 z" id="path5047"></path>
      <path class="cls-2" d="M 51.18,98.147 A 47.545,47.545 0 1 1 98.726,50.6 47.6,47.6 0 0 1 51.18,98.147 Z" id="path5049"></path>
      <path class="cls-1" d="M 51.18,5.437 A 45.166,45.166 0 1 1 6.015,50.6 45.165,45.165 0 0 1 51.18,5.437 m 0,-4.759 A 49.925,49.925 0 1 0 101.105,50.6 49.981,49.981 0 0 0 51.18,0.678 Z" id="path5051"></path>
      <path class="cls-1" d="M 79.681,48.63 83.673,43.109 79.612,33.009 73.048,31.8 70.133,28.844 69,22.233 58.869,18.017 l -5.517,3.8 -4.135,-0.017 -5.493,-3.842 -10.133,4.135 -1.214,6.607 -2.962,2.94 -6.6,1.178 -4.215,10.092 3.8,5.522 -0.022,4.168 -3.845,5.5 4.178,10.138 6.6,1.179 2.9,2.951 1.189,6.637 10.092,4.288 5.529,-3.737 h 4.167 l 5.485,3.766 10.127,-4.172 1.213,-6.624 2.958,-2.943 6.607,-1.15 4.061,-10.1 -3.962,-5.562 z m -1.048,10.256 -2.325,5.3 -5.566,0.956 -5.109,5.04 -1.026,5.512 -5.327,2.121 -4.6,-3.259 h -7.144 l -4.61,3.224 -5.3,-2.19 -0.983,-5.525 -5.006,-5.078 -5.52,-0.982 -2.191,-5.316 3.2,-4.581 0.037,-7.147 -3.179,-4.614 2.214,-5.3 5.511,-0.982 5.075,-5.037 1.016,-5.513 5.32,-2.172 4.584,3.207 7.117,0.04 4.617,-3.181 5.324,2.214 0.954,5.508 5.044,5.079 5.512,1.013 2.395,5.3 -2.986,4.62 v 7.107 z" id="path5053"></path>
      <path class="cls-1" d="m 62.575,38.359 -3.057,3.649 a 12.993,12.993 0 0 1 -8.337,22.958 c -0.217,0 -0.427,-0.022 -0.641,-0.033 L 59.777,50.381 49.35,48.064 57.117,34.325 52.973,31.983 42.044,51.315 52.124,53.556 45.672,63.723 A 12.977,12.977 0 0 1 41.994,42.785 L 38.628,39.42 a 17.752,17.752 0 1 0 23.947,-1.061 z" id="path5055"></path>
      <path class="cls-1" d="m 341.073,75.408 h -0.7 v -3.683 h -1.26 v -0.6 h 3.22 v 0.6 h -1.26 z" id="path5057"></path>
      <path class="cls-1" d="m 345.14,75.408 -1.24,-3.577 h -0.023 q 0.05,0.8 0.05,1.494 v 2.083 h -0.636 v -4.283 h 0.987 l 1.19,3.407 h 0.017 l 1.225,-3.407 h 0.99 v 4.283 h -0.674 V 73.29 c 0,-0.213 0.006,-0.491 0.017,-0.832 0.011,-0.341 0.019,-0.549 0.027,-0.621 h -0.023 l -1.286,3.571 z" id="path5059"></path>
    </g>
  </g>
  <g inkscape:groupmode="layer" id="layer2" inkscape:label="Layer 2"></g>
</svg>
